<svg id="Layer_1" data-name="Layer 1" xmlns="http://www.w3.org/2000/svg" viewBox="0 0 49.86 54.98">
  <defs>
    <style>
      .cls-1{fill:#bb2b2b;fill-rule:evenodd;}
    </style>
  </defs>
  <path class="cls-1" d="M35.65,38.86A16.36,16.36,0,1,1,12.27,22.23l.45,3.44A13.09,13.09,0,0,0,19.41,50a13.2,13.2,0,0,0,13-11.17ZM15.58,26.13c-1.17-7.41-1.31-8.38-1.31-9.22a4.35,4.35,0,0,1,4.29-4.55c3.84,0,4.36,3.25,4.81,6.69l.2,1.43H34c0,4-2.26,4.42-5.7,4.42a37.83,37.83,0,0,1-4-.2l.84,5.45H39.48l7,18.78a6.69,6.69,0,0,1,.39,1.75c0,.58-.32.85-1.62.85-2.47,0-3.12-.91-3.77-2.6l-4.74-12.8H17.14l-1.56-10ZM20.32,1.71a4.54,4.54,0,1,1-4.55,4.54,4.52,4.52,0,0,1,4.55-4.54Z"/>
</svg>