<svg id="Layer_1" data-name="Layer 1" xmlns="http://www.w3.org/2000/svg" viewBox="0 0 49.86 54.98"><defs><style>.cls-1{fill:#bb2b2b;}svg{background-color:transparent;}</style></defs><path class="cls-1" d="M24.67,0,0,17.55v5.78H3.88V44.09H46V23.54h3.87v-6.2Zm15.5,38.53H9.52V18.62L24.67,8.13l15.5,10.28Z"/><rect class="cls-1" x="16.33" y="19.14" width="17.15" height="7"/><rect class="cls-1" x="16.36" y="28.08" width="17.15" height="7"/><path class="cls-1" d="M3.86,45.53h2.7V46H4.35v1.14h2v.44h-2v1.25H6.59v.44H3.86Z"/><path class="cls-1" d="M10.66,49.23l-.25.31-.57-.44a3,3,0,0,1-.45.18,1.79,1.79,0,0,1-.53.07,1.7,1.7,0,0,1-1.36-.57,2.12,2.12,0,0,1-.43-1.37,2.16,2.16,0,0,1,.37-1.29,1.63,1.63,0,0,1,1.43-.69,1.69,1.69,0,0,1,1.45.63,2,2,0,0,1,.37,1.26,3.1,3.1,0,0,1-.08.69,1.7,1.7,0,0,1-.46.82Zm-1.45-.35a.62.62,0,0,0,.24-.08L9,48.48l.25-.31.49.38A1.49,1.49,0,0,0,10.1,48a2.86,2.86,0,0,0,.08-.63,1.48,1.48,0,0,0-.35-1,1.15,1.15,0,0,0-.94-.4,1.2,1.2,0,0,0-1,.38,1.67,1.67,0,0,0-.36,1.18,1.63,1.63,0,0,0,.34,1.07,1.26,1.26,0,0,0,1,.39A1.37,1.37,0,0,0,9.21,48.88Z"/><path class="cls-1" d="M11.84,45.53v2.3a1.36,1.36,0,0,0,.15.67.81.81,0,0,0,.77.4.88.88,0,0,0,.87-.43,1.32,1.32,0,0,0,.13-.64v-2.3h.5v2.09a2.5,2.5,0,0,1-.18,1.06,1.31,1.31,0,0,1-1.28.67,1.3,1.3,0,0,1-1.28-.67,2.5,2.5,0,0,1-.18-1.06V45.53Z"/><path class="cls-1" d="M16.12,45.53h.57L18,49.25h-.55l-.39-1.11H15.64l-.4,1.11h-.52Zm.84,2.2-.58-1.64-.59,1.64Z"/><path class="cls-1" d="M18.48,45.53H19v3.28h1.86v.44H18.48Z"/><path class="cls-1" d="M22.63,45.53h.51v1.53h1.91V45.53h.51v3.72h-.51V47.5H23.14v1.75h-.51Z"/><path class="cls-1" d="M29.42,46.06a2,2,0,0,1,.37,1.26,2.2,2.2,0,0,1-.42,1.38,1.88,1.88,0,0,1-2.77.08,2.12,2.12,0,0,1-.44-1.37,2.16,2.16,0,0,1,.38-1.29A1.61,1.61,0,0,1,28,45.43,1.71,1.71,0,0,1,29.42,46.06ZM29,48.43a2,2,0,0,0,.3-1.1,1.53,1.53,0,0,0-.35-1,1.16,1.16,0,0,0-.94-.4,1.25,1.25,0,0,0-.95.39,1.71,1.71,0,0,0-.36,1.17,1.69,1.69,0,0,0,.31,1,1.19,1.19,0,0,0,1,.42A1,1,0,0,0,29,48.43Z"/><path class="cls-1" d="M30.94,45.53v2.3a1.36,1.36,0,0,0,.15.67.8.8,0,0,0,.76.4.91.91,0,0,0,.88-.43,1.46,1.46,0,0,0,.12-.64v-2.3h.51v2.09a2.34,2.34,0,0,1-.19,1.06,1.55,1.55,0,0,1-2.55,0,2.34,2.34,0,0,1-.19-1.06V45.53Z"/><path class="cls-1" d="M34.46,48a1,1,0,0,0,.15.51.9.9,0,0,0,.84.38,1.53,1.53,0,0,0,.49-.08.58.58,0,0,0,.43-.56.51.51,0,0,0-.18-.44,1.88,1.88,0,0,0-.58-.21l-.49-.11a2.08,2.08,0,0,1-.67-.24.8.8,0,0,1-.34-.71,1.06,1.06,0,0,1,.34-.82,1.29,1.29,0,0,1,.95-.33,1.7,1.7,0,0,1,1,.28,1,1,0,0,1,.4.9h-.48a1.19,1.19,0,0,0-.15-.45.9.9,0,0,0-.75-.28.86.86,0,0,0-.61.18.62.62,0,0,0-.18.44.44.44,0,0,0,.21.4,3.63,3.63,0,0,0,.66.2l.5.12a1.39,1.39,0,0,1,.56.23.87.87,0,0,1,.34.75.94.94,0,0,1-.43.88,1.89,1.89,0,0,1-1,.27,1.45,1.45,0,0,1-1-.36A1.19,1.19,0,0,1,34,48Z"/><path class="cls-1" d="M37.7,45.53h.5v3.72h-.5Z"/><path class="cls-1" d="M39,45.53h.59l1.86,3v-3H42v3.72h-.56l-1.89-3v3H39Z"/><path class="cls-1" d="M45.24,45.63a1.34,1.34,0,0,1,.66,1h-.49a1,1,0,0,0-.37-.59,1.31,1.31,0,0,0-.71-.18,1.11,1.11,0,0,0-.85.38,1.71,1.71,0,0,0-.34,1.16,1.88,1.88,0,0,0,.28,1.08,1,1,0,0,0,.93.42,1.17,1.17,0,0,0,.82-.3,1.28,1.28,0,0,0,.33-.95H44.33v-.41H46v2h-.32l-.12-.48a1.81,1.81,0,0,1-.45.39,1.56,1.56,0,0,1-.82.19,1.59,1.59,0,0,1-1.12-.43,2.05,2.05,0,0,1-.51-1.47,2.15,2.15,0,0,1,.5-1.49,1.58,1.58,0,0,1,1.22-.53A2,2,0,0,1,45.24,45.63Z"/><path class="cls-1" d="M7.39,51.21a2.31,2.31,0,0,1,.43,1.45,2.48,2.48,0,0,1-.49,1.58A1.93,1.93,0,0,1,5.71,55a1.91,1.91,0,0,1-1.54-.65,2.4,2.4,0,0,1-.51-1.58,2.55,2.55,0,0,1,.43-1.47,1.85,1.85,0,0,1,1.63-.79A1.94,1.94,0,0,1,7.39,51.21Zm-.5,2.71a2.36,2.36,0,0,0,.34-1.25,1.77,1.77,0,0,0-.4-1.21A1.35,1.35,0,0,0,5.76,51a1.43,1.43,0,0,0-1.09.46,1.88,1.88,0,0,0-.42,1.33A1.93,1.93,0,0,0,4.61,54a1.35,1.35,0,0,0,1.17.49A1.2,1.2,0,0,0,6.89,53.92Z"/><path class="cls-1" d="M8.56,50.61h1.9a1.27,1.27,0,0,1,.91.32,1.13,1.13,0,0,1,.35.9,1.31,1.31,0,0,1-.31.87,1.19,1.19,0,0,1-.95.37H9.14v1.8H8.56Zm2.23.59a1.21,1.21,0,0,0-.52-.09H9.14v1.47h1.13a1.09,1.09,0,0,0,.63-.17.67.67,0,0,0,.23-.58A.63.63,0,0,0,10.79,51.2Z"/><path class="cls-1" d="M12.52,50.61h1.9a1.29,1.29,0,0,1,.92.32,1.16,1.16,0,0,1,.35.9,1.32,1.32,0,0,1-.32.87,1.19,1.19,0,0,1-.95.37H13.1v1.8h-.58Zm2.23.59a1.16,1.16,0,0,0-.51-.09H13.1v1.47h1.14a1.08,1.08,0,0,0,.62-.17.65.65,0,0,0,.24-.58A.63.63,0,0,0,14.75,51.2Z"/><path class="cls-1" d="M19.94,51.21a2.37,2.37,0,0,1,.42,1.45,2.54,2.54,0,0,1-.48,1.58,1.94,1.94,0,0,1-1.63.74,1.91,1.91,0,0,1-1.54-.65,2.39,2.39,0,0,1-.5-1.58,2.54,2.54,0,0,1,.42-1.47,1.87,1.87,0,0,1,1.64-.79A2,2,0,0,1,19.94,51.21Zm-.51,2.71a2.28,2.28,0,0,0,.34-1.25,1.81,1.81,0,0,0-.39-1.21A1.39,1.39,0,0,0,18.3,51a1.44,1.44,0,0,0-1.09.46A2.26,2.26,0,0,0,17.16,54a1.31,1.31,0,0,0,1.16.49A1.2,1.2,0,0,0,19.43,53.92Z"/><path class="cls-1" d="M21.12,50.61h1.93a1.83,1.83,0,0,1,.79.14,1,1,0,0,1,.59,1,1.08,1.08,0,0,1-.16.62,1.17,1.17,0,0,1-.45.4.78.78,0,0,1,.38.26.92.92,0,0,1,.14.54l0,.57a1.49,1.49,0,0,0,0,.36.36.36,0,0,0,.19.27v.09h-.72s0-.09-.05-.14a2.22,2.22,0,0,1,0-.34l0-.71a.59.59,0,0,0-.3-.56A1.23,1.23,0,0,0,23,53H21.7v1.83h-.58Zm1.87,2a1,1,0,0,0,.62-.16.67.67,0,0,0,.23-.58.63.63,0,0,0-.32-.62,1,1,0,0,0-.46-.09H21.7v1.45Z"/><path class="cls-1" d="M28.32,50.61v.5H26.89v3.76h-.58V51.11H24.87v-.5Z"/><path class="cls-1" d="M29.49,50.61v2.62a1.67,1.67,0,0,0,.17.78,1,1,0,0,0,.88.46,1,1,0,0,0,1-.5,1.68,1.68,0,0,0,.14-.74V50.61h.58V53a2.8,2.8,0,0,1-.21,1.21,1.5,1.5,0,0,1-1.47.77,1.48,1.48,0,0,1-1.46-.77A2.8,2.8,0,0,1,28.91,53V50.61Z"/><path class="cls-1" d="M33.16,50.61h.68L36,54.05V50.61h.55v4.26h-.65l-2.15-3.45v3.45h-.55Z"/><path class="cls-1" d="M37.57,50.61h.58v4.26h-.58Z"/><path class="cls-1" d="M42.18,50.61v.5H40.74v3.76h-.58V51.11H38.73v-.5Z"/><path class="cls-1" d="M42.38,50.61h.67l1.23,2,1.22-2h.68l-1.61,2.54v1.72H44V53.15Z"/></svg>