<?xml version="1.0" encoding="utf-8"?>
<!-- Generator: Adobe Illustrator 27.5.0, SVG Export Plug-In . SVG Version: 6.00 Build 0)  -->
<svg version="1.1" id="Layer_1" xmlns="http://www.w3.org/2000/svg" xmlns:xlink="http://www.w3.org/1999/xlink" x="0px" y="0px"
	 viewBox="0 0 1920 815.68" style="enable-background:new 0 0 1920 815.68;" xml:space="preserve">
<style type="text/css">
	.st0{fill:url(#SVGID_1_);}
	.st1{fill:url(#SVGID_00000132079757274888069500000016161158482888207801_);}
	.st2{fill:url(#SVGID_00000141429251883809457720000016401173420739819402_);}
	.st3{fill:#4793CB;}
	.st4{fill:url(#SVGID_00000053539457913374825240000005755567785120351890_);}
	.st5{fill:url(#SVGID_00000078729726501371297250000012127536319446896802_);}
	.st6{fill:url(#SVGID_00000065066934421197658890000011625581177777180318_);}
	.st7{fill:url(#SVGID_00000025414417553962773090000015819794252786044289_);}
	.st8{fill:url(#SVGID_00000156580529626493361410000007278118307435650202_);}
	.st9{fill:url(#SVGID_00000152240715133517785160000013314781812241146008_);}
	.st10{fill:url(#SVGID_00000062173046832316033800000002121278758572915863_);}
	.st11{fill:url(#SVGID_00000173876378931469609190000012752532962787794869_);}
	.st12{fill:url(#SVGID_00000046323585351821589220000001239268647300729989_);}
	.st13{fill:url(#SVGID_00000013180935535490322380000011843880687818898048_);}
	.st14{fill:url(#SVGID_00000039849770244060880750000013327357707679352975_);}
	.st15{fill:url(#SVGID_00000140697834911489923000000002842380129623107490_);}
	.st16{fill:url(#SVGID_00000008829701431386169220000015492617156711886469_);}
	.st17{fill:url(#SVGID_00000104689041982543693120000012382576754319795118_);}
	.st18{fill:url(#SVGID_00000144315402186310266360000002862682271050885027_);}
	.st19{fill:url(#SVGID_00000170967107436815319070000002528707326608851613_);}
	.st20{fill:url(#SVGID_00000004512015025506689150000007387436117961832367_);}
	.st21{fill:url(#SVGID_00000103977386538116344450000013392289667139139240_);}
	.st22{fill:url(#SVGID_00000052789219413147838580000017590239874361995927_);}
	.st23{fill:url(#SVGID_00000078009230224861677780000013006024053464787389_);}
	.st24{fill:url(#SVGID_00000059268763236811427100000011913114151068494720_);}
	.st25{fill:url(#SVGID_00000109003410328831765090000016197747670616087729_);}
	.st26{fill:url(#SVGID_00000023970388367948364290000016237665781845377673_);}
	.st27{fill:url(#SVGID_00000000218021487810493440000011581075648898057092_);}
	.st28{fill:url(#SVGID_00000088104598354689801160000017119067301333718414_);}
</style>
<g>
	<g>
		<linearGradient id="SVGID_1_" gradientUnits="userSpaceOnUse" x1="1200.1533" y1="378.7069" x2="1519.8572" y2="378.7069">
			<stop  offset="2.750780e-03" style="stop-color:#70C4D0"/>
			<stop  offset="1" style="stop-color:#0A8DAD"/>
		</linearGradient>
		<path class="st0" d="M1355.79,330.38c-0.34-1.48-1.28-2.24-2.03-3.09c-10.9-12.38-20.01-25.98-27.95-40.42
			c-3.03-5.51-5.84-11.13-8.34-16.88c-4.02-9.25-7.3-18.8-7.64-29.03c-0.2-5.93,0.62-11.75,3.51-17.11
			c2.56-4.76,7.42-6.04,12.01-3.08c3.85,2.49,6.3,6.25,8.77,9.95c8.66,12.95,17.97,25.38,28.46,36.92
			c11.48,12.62,24.2,23.93,37.1,35.05c4.86,4.19,9.72,8.36,14.58,12.55c16.35,14.09,32.94,27.93,47.8,43.65
			c8.65,9.15,16.52,18.96,21.89,30.42c3.31,7.05,6.04,14.36,8.52,21.8c2.25,6.76,4.47,13.55,6.72,20.31
			c2.1,6.29,3.51,12.81,5.31,19.21c1.32,4.68,2.47,9.4,3.43,14.16c1.32,6.56,2.8,13.08,3.91,19.7c0.84,5.01,1.8,10.03,2.66,15.05
			c0.59,3.45,0.88,6.95,1.3,10.43c0.58,4.76,1.18,9.52,1.75,14.29c0.26,2.15,0.29,4.31,0.48,6.47c1.54,17.03,2.03,34.11,1.72,51.21
			c-0.14,7.74-0.11,15.51-0.77,23.21c-0.72,8.3-1.14,16.63-2.05,24.92c-0.6,5.5-1.94,10.96-1.65,16.56c0.03,0.58,0.3,1.36-0.6,1.53
			c-1.06,0.2-1.12-0.89-1.2-1.38c-0.84-4.97-2.9-9.54-4.45-14.28c-1.53-4.68-3.24-9.3-5.08-13.84
			c-4.24-10.43-9.04-20.61-14.55-30.44c-1.78-3.17-3.48-6.38-5.38-9.47c-3.21-5.21-6.39-10.44-9.87-15.46
			c-8.69-12.51-18-24.57-28.47-35.66c-8.59-9.11-17.6-17.8-27.17-25.92c-10.47-8.88-21.5-16.99-32.94-24.52
			c-6.68-4.4-13.68-8.32-20.54-12.43c-13.26-7.95-26.26-16.27-38.71-25.45c-7.8-5.75-15.49-11.64-22.86-17.92
			c-7.24-6.16-14.18-12.68-20.92-19.42c-14.4-14.4-27.45-29.9-38.82-46.8c-4.81-7.15-9.38-14.43-13.57-21.97
			c-4.05-7.29-7.43-14.88-10.97-22.4c-3.84-8.16-6.21-16.87-9.1-25.39c-1.61-4.75-2.61-9.61-3.74-14.46
			c-1.07-4.61-2.56-9.18-3.06-13.85c-0.45-4.23-1.41-8.37-1.75-12.63c-0.35-4.44-1.12-8.87-1.24-13.32
			c-0.28-10.87-0.12-21.74,0.51-32.59c0.27-4.67,1.04-9.34,1.74-13.99c0.88-5.82,1.82-11.61,3.16-17.35
			c1.79-7.67,3.78-15.27,6.4-22.71c3.72-10.56,7.93-20.9,13.69-30.54c0.49-0.83,0.74-1.76,1.5-2.51c4.28-4.23,10.7-2.16,12.85,4.25
			c2.17,6.46,1.81,13.12,1.24,19.74c-0.23,2.66-0.17,5.29-0.21,7.94c-0.16,9.54-0.46,19.07-0.31,28.63
			c0.11,6.87,0.44,13.73,1.29,20.51c1.17,9.39,2.68,18.78,5.2,27.92c1.68,6.09,3.54,12.13,5.67,18.11
			c4.91,13.72,11.51,26.53,19.61,38.59c10.76,16.03,23.96,29.64,40.39,39.95c9.17,5.75,18.88,10.4,29.43,13.01
			C1346.73,331.13,1351.18,331.41,1355.79,330.38z"/>
		
			<linearGradient id="SVGID_00000049199725750330444620000000307882115930847113_" gradientUnits="userSpaceOnUse" x1="1580.1106" y1="379.5714" x2="1898.5397" y2="379.5714">
			<stop  offset="2.750780e-03" style="stop-color:#2D539F"/>
			<stop  offset="1" style="stop-color:#1E1E60"/>
		</linearGradient>
		<path style="fill:url(#SVGID_00000049199725750330444620000000307882115930847113_);" d="M1743.31,330.22
			c4.46,1.59,8.59,0.91,12.56,0.06c7.14-1.53,13.98-4.17,20.4-7.61c7.54-4.03,14.76-8.54,21.58-13.84
			c7.27-5.64,13.91-11.81,19.97-18.65c9.36-10.56,16.97-22.34,22.94-35.09c5.78-12.35,10.45-25.12,13.58-38.45
			c1.79-7.61,3.48-15.23,4.54-22.95c0.76-5.57,1.04-11.23,1.56-16.84c1.63-17.62-0.32-35.32,1.32-52.94c0.24-2.6,0.44-5.2,1.01-7.73
			c0.85-3.76,4.02-6.18,7.55-6.24c1.69-0.03,2.7,0.78,3.38,2.05c2.63,4.88,4.89,9.92,6.95,15.07c1.62,4.05,3.62,7.95,4.9,12.15
			c1.25,4.09,2.63,8.14,3.93,12.21c2.74,8.59,4.12,17.5,5.98,26.29c0.84,3.99,1.19,8.1,1.52,12.18c0.83,10.23,2.01,20.47,1.36,30.74
			c-0.59,9.19-0.97,18.4-2.52,27.55c-1.04,6.15-1.9,12.37-3.26,18.44c-1.17,5.25-2.69,10.48-4.11,15.7
			c-2.25,8.23-5.33,16.14-8.37,24.07c-5.94,15.49-13.58,30.15-22.4,44.18c-10.87,17.29-23.37,33.33-37.32,48.25
			c-4.75,5.08-9.7,9.95-14.77,14.67c-5.71,5.31-11.64,10.37-17.6,15.41c-5.84,4.94-12.07,9.37-18.09,14.07
			c-4.82,3.77-10.15,6.89-15.3,10.23c-4.61,3-9.22,6.01-13.95,8.81c-5.65,3.34-11.42,6.48-17.16,9.68
			c-4.62,2.58-8.96,5.61-13.32,8.58c-4.93,3.36-9.91,6.69-14.56,10.42c-4.66,3.73-9.27,7.55-13.88,11.36
			c-9.25,7.65-17.62,16.21-26,24.74c-6.04,6.15-11.6,12.79-16.94,19.6c-6.2,7.9-12.19,15.94-17.61,24.39
			c-5.75,8.95-11.03,18.17-15.93,27.64c-3.97,7.67-7.29,15.59-10.73,23.47c-2.7,6.19-4.9,12.61-7.11,19.01
			c-0.89,2.57-1.19,5.34-1.82,8.32c-2.05-2.39-1.36-5.12-1.67-7.54c-0.98-7.59-1.8-15.21-2.39-22.84
			c-0.46-5.89-0.39-11.82-0.71-17.73c-0.83-15.79-0.96-31.58-0.39-47.38c0.26-7.16,0.47-14.33,1.06-21.46
			c0.74-9.02,1.46-18.07,2.9-26.99c1.41-8.72,2.64-17.47,4.42-26.14c1.99-9.73,4.1-19.4,6.6-29.01c2.84-10.94,6.12-21.73,9.75-32.43
			c3.27-9.62,6.6-19.22,11.06-28.36c6.56-13.42,16.23-24.48,26.93-34.7c5.65-5.4,11.36-10.75,17.23-15.92
			c10.19-8.98,20.52-17.8,30.79-26.7c12.2-10.57,24.47-21.06,35.58-32.81c9.71-10.27,18.75-21.09,27.23-32.4
			c4.72-6.29,9.2-12.75,13.86-19.07c1.63-2.21,3.48-4.22,5.61-5.96c5.15-4.22,11.41-3.18,14.17,4.15
			c3.21,8.53,2.82,17.15,0.67,25.65c-1.51,5.96-3.81,11.74-6.12,17.52c-7.19,18-17.4,34.13-28.96,49.53
			C1750.23,322.58,1746.78,326.16,1743.31,330.22z"/>
		
			<linearGradient id="SVGID_00000090993312283237565930000009721613177992870817_" gradientUnits="userSpaceOnUse" x1="1482.6444" y1="156.0332" x2="1856.8516" y2="156.0332">
			<stop  offset="2.750780e-03" style="stop-color:#ADD334"/>
			<stop  offset="1" style="stop-color:#63AA3E"/>
		</linearGradient>
		<path style="fill:url(#SVGID_00000090993312283237565930000009721613177992870817_);" d="M1816.99,277.32
			c-0.59-2.11-0.14-4.38-0.45-6.59c-1.45-10.48-3.05-20.93-5.79-31.17c-3.15-11.8-7.52-23.1-12.84-34.1
			c-3.84-7.94-8.14-15.56-13.21-22.73c-9.53-13.48-20.41-25.74-33.54-35.86c-11.7-9.02-24.05-16.96-37.78-22.58
			c-7.25-2.96-14.56-5.76-22.13-7.83c-17.98-4.92-36.27-6.72-54.83-5.26c-8.78,0.69-17.45,2.29-26.03,4.36
			c-8.73,2.1-17.28,4.85-25.46,8.39c-8.69,3.75-16.99,8.42-24.9,13.72c-5.96,4-11.66,8.33-17.13,12.97
			c-8.17,6.92-15.3,14.82-22.12,23.05c-6.22,7.5-11.1,15.88-16.27,24.05c-1.48,2.34-2.36,5.07-4.33,7.14
			c-2.1,2.21-4.53,3.61-7.66,4.06c-5.07,0.74-10.44-5.33-9.81-10.19c0.56-4.27,1.63-8.42,2.85-12.5c1.59-5.31,3.65-10.49,5.68-15.66
			c1.41-3.59,3.03-7.09,4.66-10.58c4.1-8.76,8.6-17.33,13.87-25.42c5.06-7.78,10.5-15.34,16.48-22.48
			c49.75-59.41,131.02-86.91,207.12-74.48c46.8,7.64,89.95,34.5,122.05,68.68c1.38,1.47,2,2.64,0.81,4.82
			c-3.71,6.81-3.74,14.39-3.83,21.89c-0.2,15.72,0.52,31.46-0.47,47.17c-0.54,8.64-1.7,17.24-3.67,25.69
			c-1.54,6.64-2.61,13.41-5.13,19.78c-1.42,3.58-2.86,7.19-4.01,10.82c-3.19,10.1-8.27,19.24-13.41,28.38
			c-2.32,4.11-5.43,7.74-7.64,11.93C1817.89,277.14,1817.65,277.47,1816.99,277.32z"/>
		<path class="st3" d="M1503.08,257.47c5.08-2.54,10.8-4.13,17.43-4.63c16.04-1.21,32.96,4.13,43.33,16.89
			c5.89,7.25,8.99,16.68,8.12,26.02c-1.74,18.53-19.02,34.99-30.91,48c-14.58,15.95-30.25,30.86-45.16,46.49
			c-1.23,1.28-2.45,2.58-4.24,3.3c-5.37-15.06-14.93-27.31-25.71-38.74c-14.45-15.32-30.61-28.78-46.5-42.55
			c-14.47-12.54-29.15-24.86-42.94-38.17c-2.36-2.28-4.55-4.74-6.87-7.07c-1.1-1.11-1.19-2.19-0.51-3.58
			c8.91-18.23,27.95-29.92,48.41-26.3c26.83,4.75,36.75,30.33,48.6,51.58c4.74,8.5,12.29-6.59,14.35-9.64
			C1487,269.49,1494.03,261.99,1503.08,257.47z"/>
		
			<linearGradient id="SVGID_00000039120908682665979320000014096494686591481234_" gradientUnits="userSpaceOnUse" x1="1250.0674" y1="110.1611" x2="1508.1362" y2="110.1611">
			<stop  offset="2.750780e-03" style="stop-color:#F7E51D"/>
			<stop  offset="1" style="stop-color:#F58B2B"/>
		</linearGradient>
		<path style="fill:url(#SVGID_00000039120908682665979320000014096494686591481234_);" d="M1482.05,172.01
			c2.1-3.93-4.61-18.69-6.29-22.84c-3.14-7.77-7.23-15.14-12.12-21.95c-9.69-13.49-22.47-24.69-36.97-32.76
			c-31.53-17.55-67.77-17.95-101.2-5.6c-7.62,2.82-15.73,6.62-22.99,10.93c-10.4,6.16-20.33,13.71-28.56,22.6
			c-8.77,9.47-13.76,21.65-22.34,31.24c-2.75-11.26-0.85-25.54-1.06-37.22c-0.03-1.73-0.06-3.49,0.41-5.15
			c0.59-2.1,1.93-3.9,3.28-5.61c14.07-17.78,32.91-31.47,53.45-41.08c34.39-16.1,74.32-20.91,111.08-11.43
			c36.77,9.49,69.92,33.63,88.5,66.75c0.47,0.84,0.95,1.75,0.89,2.71c-0.04,0.75-0.41,1.44-0.76,2.1
			C1498.93,140.48,1490.49,156.24,1482.05,172.01z"/>
		
			<linearGradient id="SVGID_00000147935123788115073920000009614529815242569612_" gradientUnits="userSpaceOnUse" x1="1779.8429" y1="356.5771" x2="1697.8966" y2="587.9547">
			<stop  offset="2.750780e-03" style="stop-color:#ADD334"/>
			<stop  offset="1" style="stop-color:#63AA3E"/>
		</linearGradient>
		<path style="fill:url(#SVGID_00000147935123788115073920000009614529815242569612_);" d="M1840.64,394.36
			c-2.86,4.15-5.76,8.29-8.59,12.47c-7.24,10.7-15.57,20.52-24.45,29.85c-12.88,13.52-27.15,25.54-41.33,37.66
			c-18.12,15.48-36.29,30.88-54.01,46.82c-8.19,7.37-16.48,14.63-24.52,22.17c-9.74,9.13-19.58,18.16-29.32,27.29
			c-6.7,6.29-13.45,12.54-19.92,19.06c-4.35,4.38-8.91,8.52-13.41,12.73c-2.55,2.39-5.28,4.59-7.61,7.22
			c-0.26,0.29-0.78,0.36-1.72,0.76c1.5-2.53,2.77-4.54,3.9-6.62c5.35-9.82,11.25-19.3,17.38-28.64
			c7.6-11.58,15.97-22.58,24.63-33.37c9.68-12.04,20.26-23.25,31.54-33.79c14.68-13.7,30.76-25.44,48.34-35.26
			c15.42-8.62,30.76-17.45,44.81-28.27c9.46-7.29,18.65-14.88,27.34-23.1c7.38-6.98,14.75-13.95,21.45-21.6
			c1.68-1.92,3.33-3.86,4.99-5.8C1840.31,394.08,1840.48,394.22,1840.64,394.36z"/>
	</g>
	<g>
		
			<linearGradient id="SVGID_00000040558190017231698140000008891263328839658635_" gradientUnits="userSpaceOnUse" x1="-23.4885" y1="723.92" x2="438.0478" y2="792.2958">
			<stop  offset="2.750780e-03" style="stop-color:#ADD334"/>
			<stop  offset="1" style="stop-color:#63AA3E"/>
		</linearGradient>
		<path style="fill:url(#SVGID_00000040558190017231698140000008891263328839658635_);" d="M51.09,780.13H35.51v-83.92h15.58V780.13
			z M95.69,744.17h-45.8v-13.31h45.8V744.17z M94.49,696.21h15.47v83.92H94.49V696.21z"/>
		
			<linearGradient id="SVGID_00000028318270621917287960000003800168136240246925_" gradientUnits="userSpaceOnUse" x1="-23.0616" y1="721.0385" x2="438.4747" y2="789.4142">
			<stop  offset="2.750780e-03" style="stop-color:#ADD334"/>
			<stop  offset="1" style="stop-color:#63AA3E"/>
		</linearGradient>
		<path style="fill:url(#SVGID_00000028318270621917287960000003800168136240246925_);" d="M161.27,780.97
			c-7.11,0-13.33-1.42-18.64-4.26c-5.32-2.84-9.43-6.71-12.35-11.63c-2.92-4.92-4.38-10.57-4.38-16.96c0-6.39,1.42-12.05,4.26-16.96
			c2.84-4.92,6.75-8.79,11.75-11.63c4.99-2.84,10.69-4.26,17.08-4.26c6.23,0,11.79,1.38,16.66,4.14c4.87,2.76,8.71,6.61,11.51,11.57
			c2.8,4.96,4.2,10.83,4.2,17.62c0,0.56-0.02,1.26-0.06,2.1c-0.04,0.84-0.1,1.58-0.18,2.22h-53.35v-9.95h45.44l-5.99,3.12
			c0.08-3.6-0.66-6.81-2.22-9.65c-1.56-2.84-3.7-5.03-6.41-6.59c-2.72-1.56-5.91-2.34-9.59-2.34c-3.6,0-6.82,0.78-9.65,2.34
			c-2.84,1.56-5.02,3.78-6.53,6.65c-1.52,2.88-2.28,6.2-2.28,9.95v2.4c0,3.84,0.86,7.23,2.58,10.19c1.72,2.96,4.18,5.26,7.37,6.89
			c3.2,1.64,6.91,2.46,11.15,2.46c3.6,0,6.83-0.6,9.71-1.8c2.88-1.2,5.43-2.96,7.67-5.28l8.15,9.35c-2.96,3.36-6.61,5.92-10.97,7.67
			C171.83,780.09,166.86,780.97,161.27,780.97z"/>
		
			<linearGradient id="SVGID_00000063621333435958890550000015757144531559739296_" gradientUnits="userSpaceOnUse" x1="-21.5939" y1="711.1316" x2="439.9424" y2="779.5073">
			<stop  offset="2.750780e-03" style="stop-color:#ADD334"/>
			<stop  offset="1" style="stop-color:#63AA3E"/>
		</linearGradient>
		<path style="fill:url(#SVGID_00000063621333435958890550000015757144531559739296_);" d="M225.04,780.97
			c-4.8,0-8.99-0.82-12.59-2.46c-3.6-1.64-6.37-3.91-8.33-6.83c-1.96-2.92-2.94-6.21-2.94-9.89c0-3.6,0.86-6.83,2.58-9.71
			c1.72-2.88,4.53-5.16,8.45-6.83c3.91-1.68,9.11-2.52,15.58-2.52h18.58v9.95h-17.5c-5.03,0-8.45,0.82-10.25,2.46
			c-1.8,1.64-2.7,3.7-2.7,6.17c0,2.64,1.08,4.76,3.24,6.35c2.16,1.6,5.15,2.4,8.99,2.4c3.68,0,6.97-0.84,9.89-2.52
			c2.92-1.68,5.05-4.15,6.41-7.43l2.4,8.99c-1.44,3.76-4,6.67-7.67,8.75C235.51,779.94,230.8,780.97,225.04,780.97z M245.18,780.13
			v-13.07l-0.72-2.64v-22.66c0-4.39-1.34-7.81-4.02-10.25c-2.68-2.44-6.73-3.66-12.17-3.66c-3.52,0-6.99,0.56-10.43,1.68
			c-3.44,1.12-6.39,2.68-8.87,4.68l-5.87-10.91c3.52-2.64,7.63-4.63,12.35-5.99c4.71-1.36,9.63-2.04,14.75-2.04
			c9.35,0,16.54,2.24,21.58,6.71c5.04,4.48,7.55,11.35,7.55,20.62v37.52H245.18z"/>
		
			<linearGradient id="SVGID_00000142171163295804551270000015203310718427805623_" gradientUnits="userSpaceOnUse" x1="-18.5445" y1="690.5483" x2="442.9918" y2="758.924">
			<stop  offset="2.750780e-03" style="stop-color:#ADD334"/>
			<stop  offset="1" style="stop-color:#63AA3E"/>
		</linearGradient>
		<path style="fill:url(#SVGID_00000142171163295804551270000015203310718427805623_);" d="M278.51,780.13v-88.95h14.87v88.95
			H278.51z"/>
		
			<linearGradient id="SVGID_00000107584752923610916540000005544120948774373268_" gradientUnits="userSpaceOnUse" x1="-18.3914" y1="689.515" x2="443.1448" y2="757.8907">
			<stop  offset="2.750780e-03" style="stop-color:#ADD334"/>
			<stop  offset="1" style="stop-color:#63AA3E"/>
		</linearGradient>
		<path style="fill:url(#SVGID_00000107584752923610916540000005544120948774373268_);" d="M304.64,728.58V716.6h42.68v11.99H304.64
			z M337.25,780.97c-7.03,0-12.47-1.82-16.31-5.45c-3.84-3.64-5.75-8.97-5.75-16.01v-57.54h14.87v57.07c0,3.04,0.8,5.39,2.4,7.07
			c1.6,1.68,3.84,2.52,6.71,2.52c3.28,0,5.99-0.88,8.15-2.64l4.32,10.67c-1.84,1.44-4.04,2.52-6.59,3.24
			C342.49,780.61,339.89,780.97,337.25,780.97z"/>
		
			<linearGradient id="SVGID_00000173162697607120985120000009668188559339386258_" gradientUnits="userSpaceOnUse" x1="-16.7062" y1="678.1397" x2="444.8301" y2="746.5154">
			<stop  offset="2.750780e-03" style="stop-color:#ADD334"/>
			<stop  offset="1" style="stop-color:#63AA3E"/>
		</linearGradient>
		<path style="fill:url(#SVGID_00000173162697607120985120000009668188559339386258_);" d="M400.31,715.28c5.19,0,9.77,1,13.73,3
			c3.96,2,7.11,5.08,9.47,9.23c2.36,4.16,3.54,9.47,3.54,15.94v36.69h-14.99v-34.77c0-5.67-1.32-9.91-3.96-12.71
			c-2.64-2.8-6.39-4.2-11.27-4.2c-3.52,0-6.63,0.72-9.35,2.16c-2.72,1.44-4.82,3.58-6.29,6.41c-1.48,2.84-2.22,6.41-2.22,10.73
			v32.37h-14.87v-88.95h14.87v42.32l-3.12-5.4c2.16-4.08,5.37-7.23,9.65-9.47C389.78,716.4,394.72,715.28,400.31,715.28z"/>
		
			<linearGradient id="SVGID_00000034783985067757052570000002602029759719798681_" gradientUnits="userSpaceOnUse" x1="523.8017" y1="895.139" x2="506.7078" y2="683.1742">
			<stop  offset="2.750780e-03" style="stop-color:#F7E51D"/>
			<stop  offset="1" style="stop-color:#F58B2B"/>
		</linearGradient>
		<path style="fill:url(#SVGID_00000034783985067757052570000002602029759719798681_);" d="M496.1,780.13h-15.58v-83.92h61.26v13.19
			H496.1V780.13z M494.9,734.94h41.72v12.95H494.9V734.94z"/>
		
			<linearGradient id="SVGID_00000085948065810371412860000012095210829924902303_" gradientUnits="userSpaceOnUse" x1="595.6641" y1="889.3436" x2="578.5701" y2="677.3788">
			<stop  offset="2.750780e-03" style="stop-color:#F7E51D"/>
			<stop  offset="1" style="stop-color:#F58B2B"/>
		</linearGradient>
		<path style="fill:url(#SVGID_00000085948065810371412860000012095210829924902303_);" d="M584.21,780.97
			c-6.47,0-12.29-1.42-17.44-4.26c-5.15-2.84-9.21-6.73-12.17-11.69c-2.96-4.95-4.44-10.59-4.44-16.9c0-6.47,1.48-12.15,4.44-17.02
			c2.96-4.87,6.99-8.73,12.11-11.57c5.11-2.84,10.95-4.26,17.5-4.26c6.63,0,12.53,1.42,17.68,4.26c5.15,2.84,9.19,6.69,12.11,11.57
			c2.92,4.88,4.38,10.55,4.38,17.02c0,6.39-1.46,12.05-4.38,16.96c-2.92,4.92-6.97,8.79-12.17,11.63
			C596.64,779.56,590.76,780.97,584.21,780.97z M584.21,768.27c3.68,0,6.95-0.82,9.83-2.46c2.88-1.64,5.13-4,6.77-7.07
			c1.64-3.08,2.46-6.61,2.46-10.61c0-4.08-0.82-7.61-2.46-10.61c-1.64-3-3.9-5.31-6.77-6.95c-2.88-1.64-6.11-2.46-9.71-2.46
			c-3.6,0-6.83,0.82-9.71,2.46c-2.88,1.64-5.15,3.96-6.83,6.95c-1.68,3-2.52,6.53-2.52,10.61c0,4,0.84,7.53,2.52,10.61
			c1.68,3.08,3.96,5.44,6.83,7.07C577.5,767.45,580.69,768.27,584.21,768.27z"/>
		
			<linearGradient id="SVGID_00000150102768146471324030000016579610329945049278_" gradientUnits="userSpaceOnUse" x1="675.3531" y1="882.9171" x2="658.2592" y2="670.9523">
			<stop  offset="2.750780e-03" style="stop-color:#F7E51D"/>
			<stop  offset="1" style="stop-color:#F58B2B"/>
		</linearGradient>
		<path style="fill:url(#SVGID_00000150102768146471324030000016579610329945049278_);" d="M659.86,780.97
			c-5.44,0-10.23-1.02-14.39-3.06c-4.16-2.04-7.41-5.15-9.77-9.35c-2.36-4.2-3.54-9.49-3.54-15.88v-36.57h15.11v34.65
			c0,5.68,1.32,9.93,3.96,12.77c2.64,2.84,6.31,4.26,11.03,4.26c3.52,0,6.59-0.72,9.23-2.16c2.64-1.44,4.68-3.6,6.11-6.47
			c1.44-2.88,2.16-6.43,2.16-10.67v-32.37h14.99v64.02h-14.27v-17.38l2.52,5.39c-2.16,4.08-5.32,7.23-9.47,9.47
			C669.37,779.86,664.81,780.97,659.86,780.97z"/>
		
			<linearGradient id="SVGID_00000119807811506936968730000011169241069847033516_" gradientUnits="userSpaceOnUse" x1="755.3228" y1="876.468" x2="738.2289" y2="664.5031">
			<stop  offset="2.750780e-03" style="stop-color:#F7E51D"/>
			<stop  offset="1" style="stop-color:#F58B2B"/>
		</linearGradient>
		<path style="fill:url(#SVGID_00000119807811506936968730000011169241069847033516_);" d="M750.73,715.28c5.19,0,9.77,1,13.73,3
			c3.96,2,7.11,5.08,9.47,9.23c2.36,4.16,3.54,9.47,3.54,15.94v36.69h-14.98v-34.77c0-5.67-1.32-9.91-3.96-12.71
			c-2.64-2.8-6.39-4.2-11.27-4.2c-3.52,0-6.63,0.72-9.35,2.16c-2.72,1.44-4.82,3.58-6.29,6.41c-1.48,2.84-2.22,6.41-2.22,10.73
			v32.37h-14.87v-64.02h14.27v17.38l-2.52-5.4c2.16-4.08,5.37-7.23,9.65-9.47C740.2,716.4,745.14,715.28,750.73,715.28z"/>
		
			<linearGradient id="SVGID_00000042009822667851428110000002450258215005575084_" gradientUnits="userSpaceOnUse" x1="837.2784" y1="869.8586" x2="820.1844" y2="657.8938">
			<stop  offset="2.750780e-03" style="stop-color:#F7E51D"/>
			<stop  offset="1" style="stop-color:#F58B2B"/>
		</linearGradient>
		<path style="fill:url(#SVGID_00000042009822667851428110000002450258215005575084_);" d="M823.62,780.97
			c-6.16,0-11.69-1.36-16.6-4.08c-4.92-2.72-8.77-6.53-11.57-11.45c-2.8-4.92-4.2-10.69-4.2-17.32c0-6.55,1.4-12.31,4.2-17.26
			c2.8-4.96,6.65-8.79,11.57-11.51c4.92-2.72,10.45-4.08,16.6-4.08c5.35,0,10.15,1.18,14.39,3.54c4.23,2.36,7.59,5.95,10.07,10.79
			c2.48,4.84,3.72,11.01,3.72,18.52c0,7.43-1.2,13.59-3.6,18.46c-2.4,4.88-5.69,8.49-9.89,10.85
			C834.11,779.8,829.21,780.97,823.62,780.97z M825.42,768.27c3.6,0,6.81-0.82,9.65-2.46c2.84-1.64,5.11-4,6.83-7.07
			c1.72-3.08,2.58-6.61,2.58-10.61c0-4.08-0.86-7.61-2.58-10.61c-1.72-3-4-5.31-6.83-6.95c-2.84-1.64-6.06-2.46-9.65-2.46
			c-3.6,0-6.82,0.82-9.65,2.46c-2.84,1.64-5.12,3.96-6.83,6.95c-1.72,3-2.58,6.53-2.58,10.61c0,4,0.86,7.53,2.58,10.61
			c1.72,3.08,4,5.44,6.83,7.07C818.6,767.45,821.82,768.27,825.42,768.27z M844.96,780.13v-15.11l0.36-17.02l-1.2-17.02v-39.8h15.11
			v88.95H844.96z"/>
		
			<linearGradient id="SVGID_00000157268184050578820800000017650089324883526276_" gradientUnits="userSpaceOnUse" x1="912.3268" y1="863.8063" x2="895.2328" y2="651.8416">
			<stop  offset="2.750780e-03" style="stop-color:#F7E51D"/>
			<stop  offset="1" style="stop-color:#F58B2B"/>
		</linearGradient>
		<path style="fill:url(#SVGID_00000157268184050578820800000017650089324883526276_);" d="M898.07,780.97
			c-4.8,0-8.99-0.82-12.59-2.46c-3.6-1.64-6.37-3.91-8.33-6.83c-1.96-2.92-2.94-6.21-2.94-9.89c0-3.6,0.86-6.83,2.58-9.71
			c1.72-2.88,4.54-5.16,8.45-6.83c3.91-1.68,9.11-2.52,15.58-2.52h18.58v9.95h-17.5c-5.04,0-8.45,0.82-10.25,2.46
			c-1.8,1.64-2.7,3.7-2.7,6.17c0,2.64,1.08,4.76,3.24,6.35c2.16,1.6,5.15,2.4,8.99,2.4c3.68,0,6.97-0.84,9.89-2.52
			c2.92-1.68,5.05-4.15,6.41-7.43l2.4,8.99c-1.44,3.76-4,6.67-7.67,8.75C908.54,779.94,903.82,780.97,898.07,780.97z M918.21,780.13
			v-13.07l-0.72-2.64v-22.66c0-4.39-1.34-7.81-4.02-10.25c-2.68-2.44-6.73-3.66-12.17-3.66c-3.52,0-6.99,0.56-10.43,1.68
			c-3.44,1.12-6.39,2.68-8.87,4.68l-5.87-10.91c3.52-2.64,7.63-4.63,12.35-5.99c4.72-1.36,9.63-2.04,14.75-2.04
			c9.35,0,16.54,2.24,21.58,6.71c5.04,4.48,7.55,11.35,7.55,20.62v37.52H918.21z"/>
		
			<linearGradient id="SVGID_00000092446178084980280860000005322410938827344547_" gradientUnits="userSpaceOnUse" x1="975.2204" y1="858.7343" x2="958.1265" y2="646.7695">
			<stop  offset="2.750780e-03" style="stop-color:#F7E51D"/>
			<stop  offset="1" style="stop-color:#F58B2B"/>
		</linearGradient>
		<path style="fill:url(#SVGID_00000092446178084980280860000005322410938827344547_);" d="M942.9,728.58V716.6h42.68v11.99H942.9z
			 M975.51,780.97c-7.03,0-12.47-1.82-16.31-5.45c-3.84-3.64-5.75-8.97-5.75-16.01v-57.54h14.87v57.07c0,3.04,0.8,5.39,2.4,7.07
			c1.6,1.68,3.84,2.52,6.71,2.52c3.28,0,5.99-0.88,8.15-2.64l4.32,10.67c-1.84,1.44-4.04,2.52-6.59,3.24
			C980.74,780.61,978.15,780.97,975.51,780.97z"/>
		
			<linearGradient id="SVGID_00000042697391452624871800000015036005166320416172_" gradientUnits="userSpaceOnUse" x1="1020.3177" y1="855.0974" x2="1003.2238" y2="643.1326">
			<stop  offset="2.750780e-03" style="stop-color:#F7E51D"/>
			<stop  offset="1" style="stop-color:#F58B2B"/>
		</linearGradient>
		<path style="fill:url(#SVGID_00000042697391452624871800000015036005166320416172_);" d="M1009.8,705.57
			c-2.8,0-5.1-0.88-6.89-2.64c-1.8-1.76-2.7-3.91-2.7-6.47c0-2.4,0.9-4.47,2.7-6.23c1.8-1.76,4.09-2.64,6.89-2.64
			c2.8,0,5.09,0.82,6.89,2.46c1.8,1.64,2.7,3.74,2.7,6.29c0,2.56-0.88,4.74-2.64,6.53C1014.99,704.67,1012.67,705.57,1009.8,705.57z
			 M1002.36,780.13v-64.02h14.87v64.02H1002.36z"/>
		
			<linearGradient id="SVGID_00000122683124495425688090000012086229803691475608_" gradientUnits="userSpaceOnUse" x1="1074.1235" y1="850.7582" x2="1057.0295" y2="638.7934">
			<stop  offset="2.750780e-03" style="stop-color:#F7E51D"/>
			<stop  offset="1" style="stop-color:#F58B2B"/>
		</linearGradient>
		<path style="fill:url(#SVGID_00000122683124495425688090000012086229803691475608_);" d="M1065.78,780.97
			c-6.47,0-12.29-1.42-17.44-4.26c-5.15-2.84-9.21-6.73-12.17-11.69c-2.96-4.95-4.44-10.59-4.44-16.9c0-6.47,1.48-12.15,4.44-17.02
			c2.96-4.87,6.99-8.73,12.11-11.57c5.11-2.84,10.95-4.26,17.5-4.26c6.63,0,12.53,1.42,17.68,4.26c5.15,2.84,9.19,6.69,12.11,11.57
			c2.92,4.88,4.38,10.55,4.38,17.02c0,6.39-1.46,12.05-4.38,16.96s-6.97,8.79-12.17,11.63
			C1078.21,779.56,1072.34,780.97,1065.78,780.97z M1065.78,768.27c3.67,0,6.95-0.82,9.83-2.46c2.88-1.64,5.14-4,6.77-7.07
			c1.64-3.08,2.46-6.61,2.46-10.61c0-4.08-0.82-7.61-2.46-10.61c-1.64-3-3.9-5.31-6.77-6.95c-2.88-1.64-6.11-2.46-9.71-2.46
			c-3.6,0-6.83,0.82-9.71,2.46c-2.88,1.64-5.15,3.96-6.83,6.95c-1.68,3-2.52,6.53-2.52,10.61c0,4,0.84,7.53,2.52,10.61
			c1.68,3.08,3.95,5.44,6.83,7.07C1059.07,767.45,1062.27,768.27,1065.78,768.27z"/>
		
			<linearGradient id="SVGID_00000109018226386118493080000008910327862834354851_" gradientUnits="userSpaceOnUse" x1="1152.6676" y1="844.424" x2="1135.5737" y2="632.4592">
			<stop  offset="2.750780e-03" style="stop-color:#F7E51D"/>
			<stop  offset="1" style="stop-color:#F58B2B"/>
		</linearGradient>
		<path style="fill:url(#SVGID_00000109018226386118493080000008910327862834354851_);" d="M1150.66,715.28c5.19,0,9.77,1,13.73,3
			c3.96,2,7.11,5.08,9.47,9.23c2.36,4.16,3.54,9.47,3.54,15.94v36.69h-14.99v-34.77c0-5.67-1.32-9.91-3.96-12.71
			c-2.64-2.8-6.39-4.2-11.27-4.2c-3.52,0-6.64,0.72-9.35,2.16c-2.72,1.44-4.82,3.58-6.29,6.41c-1.48,2.84-2.22,6.41-2.22,10.73
			v32.37h-14.87v-64.02h14.27v17.38l-2.52-5.4c2.16-4.08,5.37-7.23,9.65-9.47C1140.13,716.4,1145.06,715.28,1150.66,715.28z"/>
	</g>
	<g>
		
			<linearGradient id="SVGID_00000117674843025486974580000005661462000690399653_" gradientUnits="userSpaceOnUse" x1="-160.9054" y1="549.7471" x2="1470.9956" y2="549.7471">
			<stop  offset="2.750780e-03" style="stop-color:#2D539F"/>
			<stop  offset="1" style="stop-color:#1E1E60"/>
		</linearGradient>
		<path style="fill:url(#SVGID_00000117674843025486974580000005661462000690399653_);" d="M254.91,662.5h-93.6v-11.28
			c2.54-0.21,6.22-0.53,11.04-0.95c4.82-0.42,8.13-1.06,9.93-1.91c3.18-1.27,5.51-3.2,6.99-5.8c1.48-2.59,2.23-5.96,2.23-10.09
			v-80.25h-106v78.5c0,3.71,0.61,6.83,1.83,9.38c1.22,2.54,3.63,4.77,7.23,6.67c1.8,0.95,5.01,1.91,9.61,2.86
			c4.61,0.95,8.24,1.48,10.89,1.59v11.28h-93.6v-11.28c2.54-0.21,6.22-0.53,11.05-0.95c4.82-0.42,8.13-1.06,9.93-1.91
			c3.18-1.27,5.51-3.2,6.99-5.8c1.48-2.59,2.22-5.96,2.22-10.09V469.73c0-3.39-0.69-6.49-2.07-9.3c-1.38-2.81-3.76-5.01-7.15-6.59
			c-2.86-1.38-6.33-2.59-10.41-3.66c-4.08-1.06-7.6-1.69-10.57-1.91V437h93.6v11.28c-2.97,0.11-6.59,0.58-10.89,1.43
			c-4.29,0.85-7.5,1.64-9.61,2.38c-3.6,1.27-6.01,3.39-7.23,6.36c-1.22,2.97-1.83,6.2-1.83,9.69v69.92h106v-68.33
			c0-3.39-0.69-6.49-2.07-9.3c-1.38-2.81-3.76-5.01-7.15-6.59c-2.86-1.38-6.33-2.59-10.41-3.66c-4.08-1.06-7.6-1.69-10.57-1.91V437
			h93.6v11.28c-2.97,0.11-6.59,0.58-10.89,1.43c-4.29,0.85-7.5,1.64-9.61,2.38c-3.6,1.27-6.01,3.39-7.23,6.36
			c-1.22,2.97-1.83,6.2-1.83,9.69v162.57c0,3.71,0.61,6.83,1.83,9.38c1.22,2.54,3.63,4.77,7.23,6.67c1.8,0.95,5,1.91,9.61,2.86
			c4.61,0.95,8.24,1.48,10.89,1.59V662.5z"/>
		
			<linearGradient id="SVGID_00000140719440314612203410000001391009889423556792_" gradientUnits="userSpaceOnUse" x1="-160.9054" y1="583.9142" x2="1470.9956" y2="583.9142">
			<stop  offset="2.750780e-03" style="stop-color:#2D539F"/>
			<stop  offset="1" style="stop-color:#1E1E60"/>
		</linearGradient>
		<path style="fill:url(#SVGID_00000140719440314612203410000001391009889423556792_);" d="M430.98,659.64
			c-4.98,1.8-9.35,3.26-13.11,4.37c-3.76,1.11-8.02,1.67-12.79,1.67c-8.26,0-14.86-1.93-19.78-5.8c-4.93-3.87-8.08-9.51-9.46-16.92
			h-0.95c-6.89,7.63-14.28,13.46-22.17,17.48c-7.89,4.03-17.4,6.04-28.53,6.04c-11.76,0-21.43-3.6-29-10.81
			c-7.58-7.2-11.36-16.63-11.36-28.29c0-6.04,0.85-11.44,2.54-16.21c1.69-4.77,4.24-9.06,7.63-12.87c2.65-3.18,6.14-6.01,10.49-8.5
			c4.34-2.49,8.42-4.47,12.24-5.96c4.77-1.8,14.43-5.14,29-10.01c14.57-4.87,24.39-8.69,29.48-11.44v-15.73
			c0-1.38-0.29-4.03-0.87-7.95c-0.58-3.92-1.83-7.63-3.73-11.12c-2.12-3.92-5.11-7.33-8.98-10.25c-3.87-2.91-9.35-4.37-16.45-4.37
			c-4.87,0-9.4,0.82-13.59,2.46c-4.19,1.64-7.13,3.36-8.82,5.17c0,2.12,0.5,5.24,1.51,9.38c1,4.13,1.51,7.95,1.51,11.44
			c0,3.71-1.67,7.1-5,10.17c-3.34,3.07-7.97,4.61-13.91,4.61c-5.3,0-9.19-1.88-11.68-5.64c-2.49-3.76-3.73-7.97-3.73-12.63
			c0-4.87,1.72-9.53,5.17-13.98c3.44-4.45,7.92-8.42,13.43-11.92c4.77-2.97,10.54-5.48,17.32-7.55c6.78-2.07,13.4-3.1,19.86-3.1
			c8.9,0,16.66,0.61,23.28,1.83c6.62,1.22,12.63,3.84,18.04,7.87c5.4,3.92,9.51,9.24,12.32,15.97c2.81,6.73,4.21,15.39,4.21,25.98
			c0,15.15-0.16,28.58-0.48,40.28c-0.32,11.71-0.48,24.5-0.48,38.38c0,4.13,0.72,7.42,2.15,9.85c1.43,2.44,3.63,4.5,6.59,6.2
			c1.59,0.95,4.1,1.48,7.55,1.59c3.44,0.11,6.97,0.16,10.57,0.16V659.64z M375.52,575.73c-9.01,2.65-16.9,5.26-23.68,7.8
			c-6.78,2.55-13.09,5.73-18.91,9.55c-5.3,3.61-9.48,7.89-12.55,12.82c-3.07,4.94-4.61,10.8-4.61,17.6c0,8.81,2.3,15.29,6.91,19.43
			c4.61,4.14,10.46,6.21,17.56,6.21c7.52,0,14.14-1.83,19.86-5.5c5.72-3.66,10.54-7.99,14.46-12.98L375.52,575.73z"/>
		
			<linearGradient id="SVGID_00000170269440202386911770000015923879103515404433_" gradientUnits="userSpaceOnUse" x1="-160.9054" y1="582.2452" x2="1470.9956" y2="582.2452">
			<stop  offset="2.750780e-03" style="stop-color:#2D539F"/>
			<stop  offset="1" style="stop-color:#1E1E60"/>
		</linearGradient>
		<path style="fill:url(#SVGID_00000170269440202386911770000015923879103515404433_);" d="M566.54,525.99
			c0,5.4-1.33,10.2-3.97,14.38c-2.65,4.19-6.73,6.28-12.24,6.28c-5.93,0-10.46-1.53-13.59-4.61c-3.13-3.07-4.69-6.46-4.69-10.17
			c0-2.33,0.18-4.45,0.56-6.36c0.37-1.91,0.71-3.81,1.03-5.72c-4.98,0-10.81,2.01-17.48,6.04c-6.67,4.03-12.34,9.75-17,17.16v91.22
			c0,3.71,0.72,6.73,2.15,9.06c1.43,2.33,3.68,4.08,6.75,5.24c2.65,1.06,6.06,1.85,10.25,2.38c4.18,0.53,7.81,0.9,10.89,1.11v10.49
			h-82.64v-10.49c2.44-0.21,4.95-0.42,7.55-0.64c2.59-0.21,4.85-0.63,6.75-1.27c2.96-0.95,5.17-2.62,6.59-5
			c1.43-2.38,2.15-5.48,2.15-9.29v-96.66c0-3.28-0.77-6.51-2.3-9.68c-1.54-3.17-3.68-5.71-6.44-7.62c-2.01-1.27-4.4-2.19-7.15-2.78
			c-2.76-0.58-5.72-0.98-8.9-1.19V507.4l52.12-3.5l2.23,2.22v22.09h0.79c6.57-8.58,13.88-15.1,21.93-19.55
			c8.05-4.45,15.42-6.67,22.09-6.67c6.67,0,12.1,2.17,16.29,6.51C564.44,512.85,566.54,518.68,566.54,525.99z"/>
		
			<linearGradient id="SVGID_00000031190707420997900140000010580265015902762392_" gradientUnits="userSpaceOnUse" x1="-160.9054" y1="582.0065" x2="1470.9956" y2="582.0065">
			<stop  offset="2.750780e-03" style="stop-color:#2D539F"/>
			<stop  offset="1" style="stop-color:#1E1E60"/>
		</linearGradient>
		<path style="fill:url(#SVGID_00000031190707420997900140000010580265015902762392_);" d="M847.97,662.5H771.7v-10.49
			c2.44-0.21,4.9-0.42,7.39-0.64c2.49-0.21,4.69-0.64,6.59-1.27c2.97-0.95,5.16-2.62,6.59-5.01c1.43-2.38,2.15-5.48,2.15-9.3v-80.89
			c0-11.02-2.52-19.52-7.55-25.51c-5.03-5.98-11.31-8.98-18.83-8.98c-5.19,0-10.07,0.79-14.62,2.38c-4.56,1.59-8.74,3.81-12.55,6.67
			c-3.07,2.33-5.64,4.85-7.71,7.55s-3.63,4.95-4.69,6.75v90.42c0,3.71,0.64,6.75,1.91,9.14c1.27,2.38,3.44,4.21,6.51,5.48
			c2.44,0.95,4.63,1.67,6.59,2.15c1.96,0.48,4.53,0.82,7.71,1.03v10.49h-74.69v-10.49c2.44-0.21,4.79-0.42,7.07-0.64
			c2.28-0.21,4.37-0.64,6.28-1.27c2.97-0.95,5.17-2.62,6.59-5.01c1.43-2.38,2.15-5.48,2.15-9.3v-80.89
			c0-11.02-2.52-19.52-7.57-25.51c-5.05-5.98-11.34-8.98-18.88-8.98c-5.2,0-10.09,0.82-14.66,2.46c-4.57,1.64-8.76,3.89-12.58,6.75
			c-3.08,2.33-5.68,4.95-7.8,7.87c-2.13,2.91-3.72,5.11-4.78,6.59v89.79c0,3.6,0.74,6.62,2.23,9.06c1.48,2.44,3.71,4.29,6.67,5.56
			c2.23,1.06,4.5,1.85,6.83,2.38c2.33,0.53,4.93,0.9,7.79,1.11v10.49h-76.12v-10.49c2.44-0.21,4.95-0.42,7.55-0.64
			c2.59-0.21,4.85-0.63,6.75-1.27c2.96-0.95,5.17-2.62,6.59-5c1.43-2.38,2.15-5.48,2.15-9.29v-97.3c0-3.38-0.77-6.43-2.3-9.13
			c-1.54-2.7-3.68-5-6.44-6.91c-2.01-1.27-4.5-2.3-7.47-3.09c-2.97-0.79-6.04-1.3-9.22-1.51V507.4l52.44-3.5l2.22,2.22v22.41h1.11
			c2.65-2.65,5.88-5.77,9.69-9.38c3.81-3.6,7.36-6.51,10.65-8.74c3.71-2.54,8.34-4.66,13.91-6.36c5.56-1.69,11.57-2.54,18.04-2.54
			c10.17,0,18.91,2.73,26.22,8.18c7.31,5.46,12.55,12.05,15.73,19.78c3.81-3.71,7.16-6.97,10.07-9.77c2.91-2.81,6.74-5.8,11.5-8.98
			c4.02-2.75,8.75-4.98,14.2-6.67c5.45-1.69,11.5-2.54,18.17-2.54c13.22,0,23.69,4.35,31.41,13.03
			c7.72,8.69,11.58,22.04,11.58,40.05v79.62c0,3.71,0.64,6.75,1.91,9.14c1.27,2.38,3.44,4.21,6.51,5.48
			c2.44,0.95,4.85,1.67,7.23,2.15c2.38,0.48,5.06,0.82,8.02,1.03V662.5z"/>
		
			<linearGradient id="SVGID_00000079474309659709073230000011598133289559050898_" gradientUnits="userSpaceOnUse" x1="-160.9054" y1="584.3114" x2="1470.9956" y2="584.3114">
			<stop  offset="2.750780e-03" style="stop-color:#2D539F"/>
			<stop  offset="1" style="stop-color:#1E1E60"/>
		</linearGradient>
		<path style="fill:url(#SVGID_00000079474309659709073230000011598133289559050898_);" d="M1019.44,582.56
			c0,11.02-1.75,21.85-5.25,32.5c-3.5,10.65-8.49,19.68-14.95,27.09c-7.32,8.48-15.81,14.78-25.45,18.91
			c-9.65,4.13-20.47,6.2-32.45,6.2c-9.97,0-19.46-1.88-28.47-5.64c-9.01-3.76-17.02-9.24-24.02-16.45
			c-6.89-7.1-12.38-15.76-16.47-25.98c-4.08-10.22-6.12-21.69-6.12-34.4c0-24.47,7.13-44.5,21.4-60.07
			c14.26-15.57,32.96-23.36,56.07-23.36c21.95,0,40.06,7.39,54.33,22.17C1012.31,538.3,1019.44,557.99,1019.44,582.56z
			 M986.54,582.88c0-7.95-0.79-16.34-2.39-25.19c-1.59-8.84-3.98-16.34-7.16-22.49c-3.4-6.57-7.86-11.84-13.38-15.81
			c-5.52-3.97-12.26-5.96-20.22-5.96c-8.17,0-15.15,2.01-20.94,6.04c-5.78,4.03-10.48,9.53-14.09,16.53
			c-3.4,6.46-5.79,13.83-7.17,22.09c-1.38,8.26-2.07,16.26-2.07,24c0,10.17,0.82,19.57,2.47,28.21c1.64,8.64,4.27,16.34,7.88,23.12
			c3.61,6.78,8.14,12.1,13.61,15.97c5.46,3.87,12.23,5.8,20.3,5.8c13.26,0,23.77-6.41,31.52-19.23
			C982.67,623.14,986.54,605.45,986.54,582.88z"/>
		
			<linearGradient id="SVGID_00000133527574709505644760000010761298328729918136_" gradientUnits="userSpaceOnUse" x1="-160.9054" y1="582.0065" x2="1470.9956" y2="582.0065">
			<stop  offset="2.750780e-03" style="stop-color:#2D539F"/>
			<stop  offset="1" style="stop-color:#1E1E60"/>
		</linearGradient>
		<path style="fill:url(#SVGID_00000133527574709505644760000010761298328729918136_);" d="M1215.07,662.5h-76.6v-10.49
			c2.43-0.21,5.11-0.42,8.02-0.64c2.91-0.21,5.32-0.64,7.23-1.27c2.96-0.95,5.16-2.62,6.59-5.01c1.43-2.38,2.15-5.48,2.15-9.3
			v-80.57c0-11.12-2.63-19.71-7.89-25.74c-5.25-6.04-11.65-9.06-19.19-9.06c-5.63,0-10.78,0.87-15.45,2.62
			c-4.67,1.75-8.81,3.89-12.42,6.44c-3.51,2.44-6.29,5.06-8.36,7.87c-2.07,2.81-3.58,5.06-4.54,6.75v90.1c0,3.6,0.74,6.57,2.23,8.9
			c1.48,2.33,3.71,4.13,6.67,5.4c2.23,1.06,4.63,1.85,7.23,2.38c2.59,0.53,5.27,0.9,8.03,1.11v10.49h-76.76v-10.49
			c2.43-0.21,4.95-0.42,7.55-0.64c2.59-0.21,4.85-0.63,6.75-1.27c2.97-0.95,5.17-2.62,6.6-5c1.43-2.38,2.14-5.48,2.14-9.29v-96.66
			c0-3.6-0.77-6.91-2.3-9.92c-1.54-3.01-3.68-5.48-6.44-7.38c-2.01-1.27-4.4-2.19-7.15-2.78c-2.76-0.58-5.72-0.98-8.9-1.19V507.4
			l52.12-3.5l2.22,2.22v22.09h0.79c2.54-2.54,5.72-5.59,9.54-9.14c3.81-3.55,7.42-6.44,10.81-8.66c3.92-2.54,8.58-4.66,13.98-6.36
			c5.4-1.69,11.49-2.54,18.27-2.54c15.04,0,26.19,4.69,33.45,14.06c7.26,9.38,10.89,21.85,10.89,37.42v81.52
			c0,3.71,0.64,6.7,1.91,8.98c1.27,2.28,3.44,4.05,6.52,5.32c2.54,1.06,4.74,1.8,6.59,2.23c1.85,0.42,4.42,0.74,7.71,0.95V662.5z"/>
		
			<linearGradient id="SVGID_00000005969289855684568260000003262713370675603600_" gradientUnits="userSpaceOnUse" x1="-160.9054" y1="619.4315" x2="1470.9956" y2="619.4315">
			<stop  offset="2.750780e-03" style="stop-color:#2D539F"/>
			<stop  offset="1" style="stop-color:#1E1E60"/>
		</linearGradient>
		<path style="fill:url(#SVGID_00000005969289855684568260000003262713370675603600_);" d="M1222.38,713.67
			c0-5.3,1.45-9.61,4.37-12.95c2.91-3.34,6.54-5,10.89-5c3.39,0,6.3,0.63,8.74,1.89c2.44,1.26,4.61,2.89,6.52,4.89
			c1.59,1.58,3.28,3.73,5.08,6.47c1.8,2.73,3.23,4.99,4.29,6.78c5.29-2.86,11.62-10.31,18.99-22.36
			c7.36-12.05,12.68-22.62,15.97-31.71c-10.06-25.1-19.17-47.55-27.33-67.36c-8.16-19.8-16.68-40.3-25.58-61.48
			c-2.01-4.87-5.4-8.66-10.17-11.36s-9.53-4.42-14.3-5.16v-10.49h71.54v11.12c-3.18,0.11-6.99,0.77-11.44,1.99
			c-4.45,1.22-6.67,2.62-6.67,4.21c0,0.64,0.24,1.69,0.72,3.18c0.48,1.48,1.04,3.02,1.67,4.6c4.01,10.48,10.14,25.59,18.38,45.34
			c8.24,19.74,14.63,35.54,19.18,47.4c4.77-11.33,9.73-23.05,14.88-35.17c5.14-12.12,10.9-26.44,17.26-42.95
			c0.74-2.01,1.8-4.79,3.18-8.33c1.38-3.55,2.07-6.59,2.07-9.13c0-2.75-2.41-5.32-7.23-7.7c-4.82-2.38-9.4-3.84-13.74-4.37v-10.17
			h58.19v9.85c-3.18,0.53-7.36,2.36-12.55,5.48c-5.19,3.13-9.06,7.55-11.6,13.27c-12.61,29.24-23.81,55.89-33.61,79.93
			c-9.8,24.05-17.24,41.74-22.33,53.08c-6.67,14.83-12.63,26.41-17.88,34.72c-5.24,8.32-10.36,14.86-15.34,19.63
			c-4.87,4.45-9.3,7.44-13.27,8.98c-3.97,1.53-8.08,2.3-12.32,2.3c-8.26,0-14.75-1.96-19.47-5.88
			C1224.73,723.25,1222.38,718.75,1222.38,713.67z"/>
	</g>
</g>
</svg>
