<?xml version="1.0" encoding="UTF-8"?>
<svg id="Layer_1" data-name="Layer 1" xmlns="http://www.w3.org/2000/svg" xmlns:xlink="http://www.w3.org/1999/xlink" viewBox="0 0 698.39 614.49">
  <defs>
    <style>
      .cls-1 {
        fill: url(#linear-gradient);
      }

      .cls-2 {
        fill: #4793cb;
      }

      .cls-3 {
        fill: url(#linear-gradient-3);
      }

      .cls-4 {
        fill: url(#linear-gradient-4);
      }

      .cls-5 {
        fill: url(#linear-gradient-2);
      }

      .cls-6 {
        fill: url(#linear-gradient-5);
      }
    </style>
    <linearGradient id="linear-gradient" x1="0" y1="344" x2="319.7" y2="344" gradientUnits="userSpaceOnUse">
      <stop offset="0" stop-color="#70c4d0"/>
      <stop offset="1" stop-color="#0a8dad"/>
    </linearGradient>
    <linearGradient id="linear-gradient-2" x1="379.96" y1="344.86" x2="698.39" y2="344.86" gradientUnits="userSpaceOnUse">
      <stop offset="0" stop-color="#2d539f"/>
      <stop offset="1" stop-color="#1e1e60"/>
    </linearGradient>
    <linearGradient id="linear-gradient-3" x1="282.49" y1="121.33" x2="656.7" y2="121.33" gradientUnits="userSpaceOnUse">
      <stop offset="0" stop-color="#add334"/>
      <stop offset="1" stop-color="#63aa3e"/>
    </linearGradient>
    <linearGradient id="linear-gradient-4" x1="49.91" y1="75.45" x2="307.98" y2="75.45" gradientUnits="userSpaceOnUse">
      <stop offset="0" stop-color="#f7e51d"/>
      <stop offset="1" stop-color="#f58b2b"/>
    </linearGradient>
    <linearGradient id="linear-gradient-5" x1="579.69" y1="321.87" x2="497.74" y2="553.25" gradientUnits="userSpaceOnUse">
      <stop offset="0" stop-color="#add334"/>
      <stop offset="1" stop-color="#63aa3e"/>
    </linearGradient>
  </defs>
  <path class="cls-1" d="m155.64,295.67c-.34-1.48-1.28-2.24-2.03-3.09-10.9-12.38-20.01-25.98-27.95-40.42-3.03-5.51-5.84-11.13-8.34-16.88-4.02-9.25-7.3-18.8-7.64-29.03-.2-5.93.62-11.75,3.51-17.11,2.56-4.76,7.42-6.04,12.01-3.08,3.85,2.49,6.3,6.25,8.77,9.95,8.66,12.95,17.97,25.38,28.46,36.92,11.48,12.62,24.2,23.93,37.1,35.05,4.86,4.19,9.72,8.36,14.58,12.55,16.35,14.09,32.94,27.93,47.8,43.65,8.65,9.15,16.52,18.96,21.89,30.42,3.31,7.05,6.04,14.36,8.52,21.8,2.25,6.76,4.47,13.55,6.72,20.31,2.1,6.29,3.51,12.81,5.31,19.21,1.32,4.68,2.47,9.4,3.43,14.16,1.32,6.56,2.8,13.08,3.91,19.7.84,5.01,1.8,10.03,2.66,15.05.59,3.45.88,6.95,1.3,10.43.58,4.76,1.18,9.52,1.75,14.29.26,2.15.29,4.31.48,6.47,1.54,17.03,2.03,34.11,1.72,51.21-.14,7.74-.11,15.51-.77,23.21-.72,8.3-1.14,16.63-2.05,24.92-.6,5.5-1.94,10.96-1.65,16.56.03.58.3,1.36-.6,1.53-1.06.2-1.12-.89-1.2-1.38-.84-4.97-2.9-9.54-4.45-14.28-1.53-4.68-3.24-9.3-5.08-13.84-4.24-10.43-9.04-20.61-14.55-30.44-1.78-3.17-3.48-6.38-5.38-9.47-3.21-5.21-6.39-10.44-9.87-15.46-8.69-12.51-18-24.57-28.47-35.66-8.59-9.11-17.6-17.8-27.17-25.92-10.47-8.88-21.5-16.99-32.94-24.52-6.68-4.4-13.68-8.32-20.54-12.43-13.26-7.95-26.25-16.27-38.71-25.45-7.8-5.75-15.49-11.64-22.86-17.92-7.24-6.16-14.18-12.68-20.92-19.42-14.4-14.4-27.45-29.9-38.82-46.8-4.81-7.15-9.38-14.43-13.57-21.97-4.05-7.29-7.43-14.88-10.97-22.4-3.84-8.16-6.21-16.87-9.1-25.39-1.61-4.75-2.61-9.61-3.74-14.46-1.07-4.61-2.56-9.18-3.06-13.85-.45-4.23-1.41-8.37-1.75-12.63-.35-4.44-1.12-8.87-1.24-13.32-.28-10.87-.12-21.74.51-32.59.27-4.67,1.04-9.34,1.74-13.99.88-5.82,1.82-11.61,3.16-17.35,1.79-7.67,3.78-15.27,6.4-22.71,3.72-10.56,7.93-20.9,13.69-30.54.49-.83.74-1.76,1.5-2.51,4.28-4.23,10.7-2.16,12.85,4.25,2.17,6.46,1.81,13.12,1.24,19.74-.23,2.66-.17,5.29-.21,7.94-.16,9.54-.46,19.07-.31,28.63.11,6.87.44,13.73,1.29,20.51,1.17,9.39,2.69,18.78,5.2,27.92,1.68,6.09,3.54,12.13,5.67,18.11,4.91,13.72,11.51,26.53,19.61,38.59,10.76,16.03,23.96,29.64,40.39,39.95,9.17,5.75,18.88,10.4,29.43,13.01,4.29,1.06,8.74,1.33,13.34.3Z"/>
  <path class="cls-5" d="m543.16,295.51c4.46,1.59,8.59.91,12.56.06,7.14-1.53,13.98-4.17,20.4-7.61,7.54-4.03,14.76-8.54,21.58-13.84,7.27-5.64,13.91-11.81,19.97-18.65,9.36-10.56,16.97-22.34,22.94-35.09,5.78-12.35,10.45-25.12,13.58-38.45,1.79-7.61,3.48-15.23,4.54-22.95.76-5.57,1.04-11.23,1.56-16.84,1.63-17.62-.32-35.32,1.32-52.94.24-2.6.44-5.2,1.01-7.73.85-3.76,4.02-6.18,7.55-6.24,1.69-.03,2.7.78,3.38,2.05,2.63,4.88,4.89,9.92,6.95,15.07,1.62,4.05,3.62,7.95,4.9,12.15,1.25,4.09,2.63,8.14,3.93,12.21,2.74,8.59,4.12,17.5,5.98,26.29.84,3.99,1.19,8.1,1.52,12.18.83,10.23,2.01,20.47,1.36,30.74-.59,9.19-.97,18.4-2.52,27.55-1.04,6.15-1.9,12.37-3.26,18.44-1.17,5.25-2.69,10.48-4.11,15.7-2.25,8.23-5.33,16.14-8.37,24.07-5.94,15.49-13.58,30.15-22.4,44.18-10.87,17.29-23.37,33.33-37.32,48.25-4.75,5.08-9.7,9.95-14.77,14.67-5.7,5.31-11.64,10.37-17.6,15.41-5.84,4.94-12.07,9.37-18.09,14.07-4.82,3.77-10.15,6.89-15.3,10.23-4.61,3-9.22,6.01-13.95,8.81-5.65,3.34-11.42,6.48-17.16,9.68-4.62,2.58-8.96,5.61-13.32,8.58-4.93,3.36-9.91,6.69-14.56,10.42-4.66,3.73-9.27,7.55-13.88,11.36-9.25,7.65-17.62,16.21-26,24.74-6.04,6.15-11.6,12.79-16.94,19.6-6.2,7.9-12.19,15.94-17.61,24.39-5.75,8.95-11.03,18.17-15.93,27.64-3.97,7.67-7.29,15.59-10.73,23.47-2.7,6.19-4.9,12.61-7.11,19-.89,2.57-1.19,5.34-1.82,8.32-2.05-2.39-1.36-5.12-1.67-7.54-.98-7.59-1.8-15.21-2.39-22.84-.46-5.89-.39-11.82-.71-17.73-.83-15.79-.96-31.58-.39-47.38.26-7.16.47-14.33,1.06-21.46.74-9.02,1.46-18.07,2.9-26.99,1.41-8.72,2.64-17.47,4.42-26.14,1.99-9.73,4.1-19.4,6.6-29.01,2.84-10.94,6.12-21.73,9.75-32.43,3.27-9.62,6.6-19.22,11.06-28.36,6.56-13.42,16.23-24.48,26.93-34.7,5.65-5.4,11.36-10.75,17.23-15.92,10.19-8.98,20.52-17.8,30.79-26.7,12.2-10.57,24.47-21.06,35.58-32.81,9.71-10.27,18.75-21.09,27.23-32.4,4.72-6.29,9.2-12.75,13.86-19.07,1.63-2.21,3.48-4.22,5.61-5.96,5.15-4.22,11.41-3.18,14.17,4.15,3.21,8.53,2.82,17.15.67,25.65-1.51,5.97-3.81,11.74-6.12,17.52-7.19,18-17.4,34.13-28.96,49.53-2.99,3.99-6.44,7.57-9.91,11.63Z"/>
  <path class="cls-3" d="m616.83,242.61c-.59-2.11-.14-4.38-.45-6.59-1.45-10.48-3.05-20.93-5.79-31.17-3.15-11.8-7.52-23.1-12.84-34.1-3.84-7.94-8.14-15.56-13.21-22.73-9.53-13.48-20.41-25.74-33.54-35.86-11.7-9.02-24.05-16.96-37.78-22.58-7.25-2.96-14.56-5.76-22.13-7.83-17.98-4.92-36.27-6.72-54.83-5.26-8.78.69-17.45,2.29-26.03,4.36-8.73,2.1-17.28,4.85-25.46,8.39-8.69,3.75-16.99,8.42-24.9,13.72-5.96,4-11.66,8.33-17.13,12.97-8.17,6.92-15.3,14.82-22.12,23.05-6.22,7.5-11.1,15.88-16.27,24.05-1.48,2.34-2.36,5.07-4.33,7.14-2.1,2.21-4.53,3.61-7.66,4.06-5.07.74-10.44-5.33-9.81-10.19.56-4.27,1.63-8.42,2.85-12.5,1.59-5.31,3.65-10.49,5.68-15.66,1.41-3.59,3.03-7.09,4.66-10.58,4.1-8.76,8.6-17.33,13.87-25.42,5.06-7.78,10.5-15.34,16.48-22.48C375.84,18,457.1-9.49,533.2,2.93c46.8,7.64,89.95,34.5,122.05,68.68,1.38,1.47,2,2.64.81,4.82-3.71,6.81-3.74,14.39-3.83,21.89-.2,15.72.52,31.46-.47,47.17-.54,8.64-1.7,17.24-3.67,25.69-1.54,6.64-2.61,13.41-5.13,19.78-1.42,3.58-2.86,7.19-4.01,10.82-3.19,10.1-8.27,19.24-13.41,28.38-2.32,4.11-5.43,7.74-7.64,11.93-.18.34-.41.67-1.08.52Z"/>
  <path class="cls-2" d="m302.93,222.76c5.08-2.54,10.8-4.13,17.43-4.63,16.04-1.21,32.96,4.13,43.33,16.89,5.89,7.25,8.99,16.68,8.12,26.02-1.74,18.53-19.02,34.99-30.91,48-14.58,15.95-30.25,30.86-45.16,46.49-1.23,1.28-2.45,2.58-4.24,3.3-5.37-15.06-14.93-27.31-25.71-38.74-14.45-15.32-30.61-28.78-46.5-42.55-14.47-12.54-29.15-24.86-42.94-38.17-2.36-2.28-4.55-4.74-6.87-7.07-1.1-1.11-1.19-2.19-.51-3.58,8.91-18.23,27.95-29.92,48.41-26.3,26.83,4.75,36.75,30.33,48.6,51.58,4.74,8.5,12.29-6.59,14.35-9.64,6.5-9.59,13.53-17.09,22.58-21.61Z"/>
  <path class="cls-4" d="m281.89,137.3c2.1-3.93-4.61-18.69-6.29-22.84-3.14-7.77-7.23-15.14-12.12-21.95-9.69-13.49-22.47-24.69-36.97-32.76-31.53-17.55-67.77-17.95-101.2-5.6-7.62,2.82-15.73,6.62-22.99,10.93-10.4,6.16-20.33,13.71-28.56,22.6-8.77,9.47-13.76,21.65-22.34,31.24-2.75-11.26-.85-25.54-1.06-37.22-.03-1.73-.06-3.49.41-5.15.59-2.1,1.93-3.9,3.28-5.61,14.07-17.78,32.91-31.47,53.45-41.08,34.39-16.1,74.32-20.91,111.08-11.43,36.77,9.49,69.92,33.63,88.5,66.75.47.84.95,1.75.89,2.71-.04.75-.41,1.44-.76,2.1-8.44,15.77-16.88,31.53-25.33,47.3Z"/>
  <path class="cls-6" d="m640.49,359.65c-2.86,4.15-5.76,8.29-8.59,12.47-7.24,10.7-15.57,20.52-24.45,29.85-12.88,13.52-27.15,25.54-41.33,37.66-18.12,15.48-36.29,30.88-54.01,46.82-8.19,7.37-16.48,14.63-24.52,22.17-9.74,9.13-19.58,18.16-29.32,27.29-6.7,6.29-13.45,12.54-19.92,19.06-4.35,4.38-8.91,8.52-13.41,12.73-2.55,2.39-5.28,4.59-7.61,7.22-.26.29-.78.36-1.72.76,1.5-2.53,2.77-4.54,3.9-6.62,5.35-9.82,11.25-19.3,17.38-28.64,7.6-11.58,15.97-22.58,24.63-33.37,9.68-12.04,20.26-23.25,31.54-33.79,14.68-13.7,30.76-25.44,48.34-35.26,15.42-8.62,30.76-17.45,44.8-28.27,9.46-7.29,18.65-14.88,27.34-23.1,7.38-6.98,14.75-13.95,21.45-21.6,1.68-1.92,3.33-3.86,4.99-5.8l.49.42Z"/>
</svg>